<?xml version="1.0" encoding="UTF-8"?>
<svg xmlns="http://www.w3.org/2000/svg" version="1.1" viewBox="0 0 800 800">
  <defs>
    <style>
      .cls-1 {
        fill: #3e6d88;
      }
    </style>
  </defs>
  <!-- Generator: Adobe Illustrator 28.7.1, SVG Export Plug-In . SVG Version: 1.2.0 Build 142)  -->
  <g>
    <g id="Capa_1">
      <path class="cls-1" d="M400,0C179.4,0,0,179.4,0,400s179.4,400,400,400,400-179.4,400-400S620.6,0,400,0ZM587.8,689.9c.4-4.7.4-9.4-.5-14l-17.2-86.6c-6.8-34.3-33.7-61.1-68-67.9l-23.3-4.6c-13.4-2.7-23.9-13.1-26.7-26.5l-4.4-21.4c-1.4-6.9,1.1-14,6.5-18.4,21-17.4,40.3-43.1,51.5-73.4,15.5-2.8,29.6-17.7,34.2-38.2,4.9-21.9-2.8-42.7-17.4-50.8,7.8-5.4,12.2-16.3,12.2-36.4,0-53.1-30.7-98.6-75-121.1.2-1.5.6-3,.6-4.6,0-24.4-27.7-44.2-61.8-44.2s-61.8,19.8-61.8,44.2.4,3,.6,4.6c-44.4,22.5-75.1,68-75.1,121.1s4.4,30.9,12.2,36.4c-14.6,8.1-22.3,29-17.4,50.8,4.5,20.5,18.7,35.4,34.2,38.2,11.2,30.3,30.5,56,51.5,73.4,5.4,4.5,7.9,11.6,6.5,18.4l-4.4,21.4c-2.7,13.4-13.3,23.8-26.7,26.5l-23.3,4.6c-34.3,6.8-61.1,33.6-68,67.9l-17.2,86.6c-.8,4-1,8-.8,11.9-93-62-154.4-167.8-154.4-287.8,0-190.7,155.1-345.8,345.8-345.8s345.8,155.1,345.8,345.8c0,121.4-63,228.2-157.9,289.9Z"/>
    </g>
  </g>
</svg>